<?xml version="1.0" encoding="UTF-8"?>
<svg id="Layer_1" data-name="Layer 1" xmlns="http://www.w3.org/2000/svg" viewBox="0 0 244.43 334.49">
  <defs>
    <style>
      .cls-1, .cls-2 {
        fill: none;
      }

      .cls-2 {
        opacity: 0;
        stroke: #000;
        stroke-miterlimit: 10;
        stroke-width: .09px;
      }
    </style>
  </defs>
  <g>
    <path d="M163.37,147.63V52.81c0-16.23,1.27-29.87-9.3-36.19-6.89-4.1-14.89-3.19-27.41-3.19H43.02c-12.51,0-20.52-.91-27.41,3.19C5.02,22.93,6.31,36.58,6.31,52.81v240.56c0,12.78,3.01,22.81,16.77,26.34,1.15,.29,2.33,0,2.63-.59,.29-.59-.05-1.65-1.57-2.06-14.84-4.09-15.03-18.9-15.03-23.95V52.82c0-6.92-.52-17.97,1.74-25.3,2.18-7.09,10.12-11.38,17.09-11.3,5.45,.07,15.91,0,17.49,0s2.4-.27,2.4,.79v4.53c0,5.05,1.06,9.03,8.51,9.03h57.04c7.45,0,8.51-3.99,8.51-9.03v-4.53c0-1.06,.79-.79,2.4-.79s12.04,.07,17.49,0c6.97-.1,14.91,4.2,17.09,11.3,2.25,7.33,1.74,18.37,1.74,25.3v94.11c0,3.26-.08,5.15,1.35,5.15,1.37,0,1.4-2.14,1.4-4.46Z"/>
    <path d="M163.37,225.7v67.67c0,12.78-3.01,22.81-16.77,26.34-1.15,.29-2.33,0-2.63-.59-.29-.59,.07-1.65,1.57-2.06,14.84-4.09,15.03-18.9,15.03-23.95v-67.41c0-1.94,.93-2.04,1.55-2.04,.64,0,1.25,.71,1.25,2.04Z"/>
    <path d="M65.02,69.56c.66-.03,1.23-.54,1.98-1.3,1.91-1.87,5.05-5.27,6.27-9.36,.88-2.99-.42-6.6-3.61-8.6-1.4-.88-3.01-1.32-4.63-1.33-1.62,.02-3.23,.46-4.63,1.33-3.19,1.99-4.49,5.61-3.61,8.6,1.2,4.09,4.36,7.48,6.27,9.36,.73,.74,1.32,1.25,1.98,1.3Z"/>
    <path d="M45.69,121.89c.66-.03,1.23-.54,1.98-1.28,1.91-1.87,5.05-5.27,6.27-9.36,.88-2.99-.42-6.6-3.61-8.6-1.4-.88-3.01-1.32-4.63-1.33-1.62,.02-3.23,.46-4.63,1.33-3.19,1.99-4.49,5.61-3.61,8.6,1.2,4.09,4.36,7.48,6.27,9.36,.73,.73,1.32,1.25,1.98,1.28Z"/>
    <path d="M115.92,97.41c.66-.03,1.23-.54,1.98-1.28,1.91-1.87,5.05-5.27,6.27-9.36,.88-2.99-.42-6.6-3.61-8.6-1.4-.88-3.01-1.32-4.63-1.33-1.62,.02-3.23,.47-4.63,1.33-3.19,1.99-4.49,5.61-3.61,8.6,1.2,4.09,4.36,7.48,6.27,9.36,.76,.73,1.33,1.23,1.98,1.28Z"/>
    <path d="M97.84,174.04c.66-.03,1.23-.54,1.98-1.3,1.91-1.87,5.05-5.27,6.27-9.36,.88-2.99-.42-6.6-3.61-8.6-1.4-.88-3.01-1.32-4.63-1.33-1.62,.02-3.23,.47-4.63,1.33-3.19,1.99-4.49,5.61-3.61,8.6,1.2,4.09,4.36,7.48,6.27,9.36,.74,.76,1.32,1.27,1.98,1.3Z"/>
    <path d="M39.29,233.65c.66-.03,1.23-.54,1.98-1.28,1.91-1.87,5.05-5.27,6.27-9.36,.88-2.99-.42-6.6-3.61-8.6-1.4-.88-3.01-1.32-4.63-1.33-1.62,.02-3.23,.46-4.63,1.33-3.19,1.99-4.49,5.61-3.61,8.6,1.2,4.09,4.36,7.48,6.27,9.36,.76,.73,1.33,1.25,1.98,1.28Z"/>
    <path d="M238.5,319.72c0,1.49-3.78,1.42-9.57,1.42H10.73c-8.92,0-10.69,.15-10.69-1.28,0-1.6,3.58-1.33,10.77-1.33H228.98c5.08,0,9.52-.27,9.52,1.2Z"/>
    <path class="cls-1" d="M201.22,221.21c-.2,0-.41,0-.61,.02"/>
    <path class="cls-1" d="M200.61,221.22c-.2,0-.41-.02-.61-.02"/>
    <path d="M185.51,240.32c-.03,1.28,2.31,1.28,4.12,1.28h10.5c2.7,0,6.03,.14,6.03-1.23s-3.14-1.11-5.86-1.11h-10.64c-1.62,0-4.1-.12-4.15,1.06Z"/>
    <path d="M184.18,308.36c-.05,1.37,2.45,1.37,4.37,1.37h20.64c2.87,0,6.4,.15,6.4-1.32s-3.34-1.17-6.21-1.17h-20.77c-1.74,0-4.37-.15-4.42,1.11Z"/>
    <path d="M184.18,253.31c.05,1.37,2.67,1.42,4.61,1.42h25.57c2.36,0,2.96-.54,2.96-1.42s-1-1.23-2.96-1.23h-25.92c-2.84,0-4.29,.22-4.26,1.23Z"/>
    <path d="M227.61,310.06h-8.43c-1.72,0-1.5-.79-1.5-1.55v-16.67c0-1.15,.79-.93,1.64-.93h5.07c1.64,0,1.74-.98,1.74-1.91v-24.17c0-1.77-1.17-1.64-2.45-1.64h-5.18c-1.01,0-.84-.39-.84-1.37v-7.8c0-1.59,.1-1.81,.83-1.81h1.22c1.52,0,2.75,.08,2.75-1.33v-6.87c0-1.87-.32-2.31-1.69-2.31h-3.58c-.59,0-.73,.05-.73-.71,0-3.28-.49-18.83-15.87-19.23-15.38,.41-15.87,15.96-15.87,19.23,0,.74-.12,.71-.73,.71h-3.58c-1.38,0-1.69,.44-1.69,2.31v6.87c0,1.44,1.25,1.33,2.75,1.33h1.22c.73,0,.83,.2,.83,1.81v7.82c0,.96,.17,1.37-.84,1.37h-5.18c-1.3,0-2.45-.14-2.45,1.64v24.17c0,.93,.1,1.91,1.74,1.91h5.1c.84,0,1.64-.24,1.64,.93v16.67c0,.76,.24,1.55-1.5,1.55h-8.43c-1.11,0-1.33,.44-1.33,2.31v6.13h56.72v-6.13c0-1.86-.2-2.31-1.35-2.33Zm-20.8-42.2c-.57,1.32-3.82-.73-7.8-.66-4.66,.07-10.13,4.29-10.23,10.94-.05,4.46,1.81,7.77,3.88,9.63,1.45,1.27,2.67,1.69,2.57,2.48-.14,.96-2.08,.46-3.19-.08-1.13-.54-7.09-4.69-5.86-13.73,1.3-9.49,9.24-12.31,13.66-11.96,4.42,.37,7.38,2.43,6.97,3.38Zm6.38,14.46c-1.33,4.85-5.08,5.98-5.56,4.91-.46-1.06,2.48-3.36,3.26-5.61,.78-2.23-.37-6.27,1.49-6.43,.95-.08,2.09,2.57,.81,7.13Z"/>
    <path d="M23.8,89.55c2.35-.71,42.81-12.78,48.01-14.25,5.2-1.47,39.8-12.07,44.89-13.54,5.08-1.49,29.03-8.98,30.4-9.46s1.74-.98,1.55-1.59c-.32-.96-1.89-.42-7.4,.98-6.84,1.76-30.36,9.09-50.59,15.11-20.23,6.05-68.05,20.15-68.05,20.15-3.51,.98-4.66,1.55-4.12,2.79,.42,.98,2.04,.81,5.32-.19Z"/>
    <path d="M33.38,152.73c2.35-.71,42.81-12.78,48.01-14.25,5.2-1.47,11.52-3.51,16.6-4.98,5.08-1.49,29.03-8.98,30.4-9.46s1.74-.98,1.55-1.59c-.32-.96-1.89-.42-7.4,.98-6.84,1.76-2.09,.52-22.31,6.55-20.21,6.03-68.04,20.15-68.04,20.15-3.51,.98-4.66,1.55-4.12,2.8,.41,.96,2.03,.78,5.3-.2Z"/>
    <path d="M142.94,117.99c-3.65-27.63-10.5-79.45-10.5-79.45-.41-3.61-.79-4.85-2.11-4.53-1.03,.25-1.11,1.87-.66,5.27,.34,2.43,8.71,64.39,9.34,69.76,.17,1.45,.66,5.12,1.28,9.79l2.65-.84Z"/>
    <path d="M97.38,178.99c-21.09,0-70.96-.03-70.96-.03-3.65-.07-4.91,.15-4.75,1.5,.12,1.05,1.74,1.35,5.15,1.32,2.45-.02,44.68-.02,50.09-.02h21.6c5.72,0,7.77-.03,7.77-1.23-.02-1.45-4.17-1.54-8.9-1.54Z"/>
    <path d="M41.64,34.45c.61,2.38,10.88,43.2,12.16,48.45,1.28,5.25,26.48,98.06,27.76,103.21,1.28,5.15,7.85,29.37,8.27,30.73s.91,1.79,1.52,1.6c.98-.29,.9-1.55-.71-7.43-1.86-6.82-23.86-88.54-29.1-108.97-5.23-20.45-17.48-68.76-17.48-68.76-.84-3.53-1.37-4.71-2.63-4.22-.98,.37-.66,2.08,.2,5.39Z"/>
    <path d="M76.83,259.76c-7.53-17.63-15.62-36.51-19.72-45.97-8.41-19.35-28.13-65.12-28.13-65.12-1.38-3.36-2.09-4.44-3.26-3.77-.91,.54-.32,2.16,1.05,5.3,.98,2.25,17.6,40.93,19.67,45.92,1.55,3.72,18.53,43.05,28.02,65.05l2.38-1.42Z"/>
    <path d="M86.1,281.41c3.78,8.82,6.62,15.4,7.48,17.33,2.5,5.56,2.79,6.79,1.87,7.23-.57,.27-1.11-.05-1.76-1.35-.49-1.01-6.91-15.2-10.69-23.68l3.09,.47Z"/>
    <path d="M97.04,37.1c-2.01-.41-1.33,4.91-1.33,9.17s1.06,31.66,1.06,45.24,3.72,26.34,9.98,34.85c6.25,8.51,7.77,17.56,7.85,23.95,.15,11.48-.22,14.91,1.62,14.91,1.6,0,1.22-1.99,1.38-13.46,.1-6.38-1.81-17.97-8.6-26.73-6.79-8.78-9.57-24.62-9.57-33.52s-1.33-40.71-1.33-45.24,.19-8.9-1.06-9.17Z"/>
    <path d="M80.8,229.24c-3.12,1.55-19.34,10.28-22.17,11.53-2.84,1.23-22.88,11.53-27.14,13.85-4.26,2.31-9.76,5.15-10.28,3.72s3.72-3.19,9.03-6.03c5.32-2.84,16.77-8.51,27.14-13.85,6.38-3.28,16.85-8.87,19.96-10.37,3.11-1.5,7.09-4.17,7.8-3.11,.71,1.06-1.32,2.75-4.34,4.26Z"/>
    <path d="M211.77,190.56c-2.2-.9-8.27,12.12-2.89,13.12,4.98,.93,7.26-5.81,11.18-4.04,3.9,1.77,7.65,2.14,12.07-4.22,3.9-5.64,3.97-7.77,2.77-7.95-1.11-.17-2.31,4.14-4.96,7.63-2.01,2.65-4.26,5.27-10.12,2.72-4.32-1.87-6.69,4.44-9.93,4.04-1.82-.24-1.3-3.43,0-6.27,1.15-2.53,2.69-4.69,1.87-5.03Z"/>
    <path d="M196.34,86.62c-.98-1.42-4.22,1.64-4.22,5.32,0,2.31-.17,2.48-2.04,3.28s-3.68,1.81-3.77,3.95c-.1,2.13,1.55,1.91,1.28,4.83-.27,2.92-1.11,8.41,4.2,10.12,4.8,1.54,5.42,1.93,6.03,4.32,.35,1.5,1.96,1.2,1.72-.9-.27-2.25-1.69-4.04-5.91-5.03-4.26-1-4.59-3.85-4.09-7.21,.71-4.69-1.06-4.49-.79-6.27s4.54-1.52,5.15-4.71c.39-2.04-.68-3.5,1.11-5.35,1.25-1.33,1.67-1.84,1.32-2.35Z"/>
    <path d="M117.39,282.61c-2.53,.1-1.14,14.86-12.4,21.33-8.12,4.66-18.09,6.6-19.04,11.43-.27,1.37,1.47,2.38,2.43,.32,1.18-2.55,5.57-3.51,10.43-5.91,5.56-2.75,10.22-3.48,14.38-9.43s6.47-17.84,4.21-17.73Z"/>
    <path d="M130.48,295.51c.52,5.98,1.23,9,1.77,12.85s.79,9.71-.41,9.57-1.06-2.67-1.6-7.72c-.54-5.05-1.93-8.06-2.18-12.99-.44-8.65-.66-15.76,1.33-15.76,1.42,.03,.47,7.31,1.08,14.03Z"/>
    <path d="M91.9,236.94c-2.43-1.22-4,14.12-13.06,20.15-9.07,6.03-27,7.84-28.39,10.82-1.87,3.99,8.26,7.19,13.93,9.14s25.82,9.2,29.18,6.57c3.72-2.92,1.77-12.51,4.61-21.92,2.84-9.41,6.13-14.11,4.17-14.99-1.94-.9-6.89,12.64-7.99,20.44-.88,6.21-.03,12.46-2.84,13.88-3.92,1.98-36.26-8.41-37.25-11.35-1.06-3.11,21.99-4.81,29.54-12.85,4.17-4.44,7.64-13.5,8.18-16.06,.54-2.6,.62-3.48-.08-3.83Z"/>
    <path d="M209.12,107.37s-.78,3.31-.17,5.91c.59,2.6,2.13,3.31,2.6,2.67,.47-.66-1-2.06-.78-4.91,.24-2.84-.17-4.09-1.65-3.66Z"/>
    <path d="M197.59,102.93c-.41-.71-1.6-.41-3.55,.83s-2.31,1.89-1.82,3.07,2.6,1.54,4.32-.59c1.71-2.13,1.22-3.04,1.05-3.31Z"/>
    <path d="M229.27,137.07c-.96-1.99-1.5-2.89-2.3-2.57-.81,.32-.44,1.67,.29,3.41,1.22,2.9,10.47,25.11,12.58,34.97,1.99,9.3,6.64,28.79-11.03,34.62-15.18,5.02-24.17,3.82-27.37-7.5-.93-3.19,0-4.91,2.13-8.65,1.82-3.19,7.19-10.17,12.92-29.15,2.53,.93,5.32,1.06,6.79-3.46,1.47-4.53,4.09-16.19,.79-27.95-3.14-11.21-7.06-12.55-7.58-11.18-.56,1.44,3.66,4.26,5.18,12.11,2.79,14.46,.73,23.71-1.23,27.48-.39,.73-1.06,1.49-3.14,.78-2.45-.84-7.03-2.62-10.76-3.9-5.03-1.74-8.87-3.31-9.29-2.13-.32,.91,.54,1.49,1.94,2.13,1.25,.57,10.67,4.05,14.74,5.35-1.01,3.63-8.6,29.08-17.9,33.25-7.45,3.33-17.24-1.42-27.81-11.84-9.98-9.85-21.02-22.09-25.03-35.67-1.33-4.53-1.84-10.91-3.33-10.77-1.91,.17-.29,9.36,1.99,15.3,.78,2.01,1.44,3.65,1.99,4.93-4.48-.79-15.86-1.99-21.55,5.18-7.19,9.03-18.37,30.35-25.03,48.43-9.3,24.49-9.91,26.01-5.59,28.47,3.72,2.13,17.04,8.78,19.69,9.85,2.67,1.06,2.94,1.6,2.94,5.05v22.36c0,2.4,.79,3.46,6.13,4.26,5.32,.79,19.69,.79,25.8,.54,6.13-.27,8.24-.79,8.24-6.13s-1.42-48.79-1.42-52.5,1.42-3.38,3.41-2.7c1.99,.66,42.44,10.64,55.74-5.18,.93-.79,2.04-.83,3.9-1.06,4.66-.57,24.96-2.13,27.76-18.37,3.14-18.17-9.57-47.15-14.62-57.75Zm-121.32,98.96c-.76,2.62-15.55-4.14-14.37-6.91,.46-1.1,1.6,.15,7.21,2.9,4.32,2.09,7.63,2.53,7.16,4Zm28.2,4.02c2.09-26.11,1.98-29.65,3.97-29.43,1.45,.15,.34,4.83-1.06,23.76-1.5,20.75-.52,24.15-1.99,24.15-1.69,0-2.14-3.12-.91-18.47Zm-21.5,2.85c-2.62-.22-.93-16.35,.76-30.4,2.03-16.89,10.72-27.53,12.92-25.84,.51,.39,.79,1-1.22,3.01-3.07,2.99-7.41,12.95-8.41,20.21-4.14,30.06-1.94,33.18-4.05,33.01Zm31.51,31.21c-2.84,.35-12.95,.62-17.29,.35-4.34-.25-12.82-1.54-12.41-3.9,.24-1.35,2.01-.88,4.12-.12,1.84,.66,7.72,1.38,11.01,1.54,6.57,.3,10.55-.19,13.31-.35,2.75-.19,5.61-.9,5.71,.17,.08,1.08-1.6,1.96-4.44,2.31Zm34.53-59.71c-.69,1.11-5.72-1.76-10.44-4.83-2.85-1.87-13.76-8.8-15.32-9.96-1.65-1.23-4.64-3.23-7.53-5.27-4.22-2.99-8.21-6.11-7.55-7.28,.74-1.33,3.29,.64,8.38,4.46,2.36,1.77,5.29,3.93,8.85,6.33,2.58,1.74,12.88,8.12,14.69,9.32,9.02,5.94,9.44,5.94,8.92,7.23Z"/>
    <path d="M185.01,111.25c-3.31-.78-8.8,13.39-11.33,23.76-1.67,6.84-4.15,18.1-4.69,24.03-.29,3.07,.35,3.72,1.06,3.72,1.35,0,1.11-3.12,1.77-6.3,.88-4.22,1.71-9.3,2.4-13.48,1.2-7.33,6.86-25.16,9.14-28.47,1.47-2.13,1.06,3.04,.9,5.76-.2,2.97,2.89,2.48,2.08,6.48-.79,3.99-4.91,9.3-5.99,13.58-1.06,4.26-.02,10.64,.14,16.63,.27,10.91-.27,18.37,1.47,18.24s.54-5.45,.54-23.42c0-6.38-.54-7.58,0-10.37s5.56-9.36,6.13-14.37c.68-6.1-2.33-4.51-2.16-8.09,.15-3.77,.66-7.19-1.44-7.7Z"/>
    <path d="M151.76,139.47c-2.85,.47-1.6,15.43,.35,15.43s-.71-11.35,.59-11.7c1.62-.44,4.91,14.19,6.32,18.81,.9,2.67,2.67,2.13,1.77-1.42s-2.48-10.64-4.61-15.62c-2.11-4.98-3.34-5.67-4.42-5.51Z"/>
    <path d="M208.72,117.3c-.61-.46-2.75,.98-4.8,2.48-2.5,1.84-5.07,4.04-7.09,6.13-3.07,3.16-8.07,7.8-10.03,18.27-1.52,8.16-1.23,14.02,.17,13.58,1.47-.46,.91-7.84,1.77-12.24,1.87-9.57,3.95-12.16,9.03-17.56,2.92-3.11,7.21-6.13,8.87-7.53,1.67-1.42,2.92-2.5,2.08-3.12Z"/>
    <path d="M160.1,163.79c1.94,2.5,19.69,12.24,25.03,15.08,5.34,2.84,4.96-.9,6.74-5.86,1.77-4.96,3.93-13.16,4.61-16.85,.35-1.94-1.23-1.94-1.69-.62-.44,1.32-4.85,18.05-6.65,20.75-.9,1.33-3.28-.62-8.43-3.28-5.67-2.92-15-8.34-17.21-9.41-2.21-1.08-3.01-.62-2.4,.19Z"/>
    <path d="M230.23,81.85c-1.49-2.89-5.39-6.43-8.58-3.6-2.63,2.35-4.07,.78-5.56,2.67-.98,1.28-.35,3.97-1.08,3.21-1.42-1.54-3.66-1.11-3.19-1.77,.46-.64,1.4-2.18,1.23-3.6-.24-1.87-.9-2.25-1.89-3.31-1-1.06,.19-1.3-.41-4.14-.59-2.84-6.27-3.07-9.52-1.06-2.85,1.76-3.07,3.72-1.77,6.03,1.05,1.84-1.11,.83-1.65,3.26-.64,2.89,2.13,2.96,1.3,4.26,0,0-3.66,3.48-.12,7.92,3.55,4.44,10.12,1.38,9.41,7.63-.39,3.38-1.55,8.78,1.64,10.25,1.18,.81,2.25-2.13,3.85-3.72,1.59-1.59-.64,3.58,2.06,4.31,2.9,.78,4.05-1.77,4.98-1.64s1.45,3.21,4.91,1.74c3.48-1.47,4.54-6.79,1.74-9.98-2.79-3.21-6.47-2.48-9.17-1.33-.35,.14,1.42-2.11,1.22-5.3-.02-.25,.24-.44,.47-.35,1.27,.46,4.51,1.27,6.25-1.17,2.18-3.09,.95-2.6,2.89-3.38s2.48-4.04,1-6.92Zm-23.39,3.95c-.44,.98-5.03-.83-3.9-2.21,1.6-1.96,4.34,1.23,3.9,2.21Zm19.88-1.42c-.98,1.06-2.94,2.31-3.38,.89-.44-1.42,3.5-4.61,4.26-3.55,.46,.61,.1,1.59-.88,2.65Z"/>
    <path d="M145.68,117.35c-4.91,0-8.33,.03-8.75,2.08-.35,1.72,1.23,6.96,2.3,10.28,1.06,3.33,2.52,7.72,3.72,11.84s2.38,7.58,3.85,7.06c1.23-.44-2.48-11.8-4.48-17.92-1.5-4.59-2.01-7.33-2.38-8.66-.47-1.72,.29-2.43,3.6-2.43s.86,0,2.58,0,2.79,.14,3.72,2.4c.93,2.26,3.19,8.78,3.85,11.58,.66,2.8,2.4,9.03,3.46,9.03s0-4.91-1.33-9.44c-1.33-4.53-2.92-9.85-3.85-12.11-.9-2.26-1.5-3.72-6.28-3.72Z"/>
  </g>
  <rect class="cls-2" x=".04" width="244.34" height="334.49"/>
</svg>