<?xml version="1.0" encoding="UTF-8"?>
<svg id="Layer_1" data-name="Layer 1" xmlns="http://www.w3.org/2000/svg" viewBox="0 0 321.98 334.49">
  <defs>
    <style>
      .cls-1 {
        fill: none;
        opacity: 0;
        stroke: #000;
        stroke-miterlimit: 10;
        stroke-width: .09px;
      }
    </style>
  </defs>
  <g>
    <g>
      <path d="M240.37,272.29c1.17-8.11-3.33-18.14-5.57-16.62-1.87,1.27,4.31,7.95,2.89,16.65-1.05,6.5-4.07,12.88-9.56,18.39-1.77,1.77-1.6,2.57-1.15,2.92,.98,.79,2.06-.08,3.65-1.33,2.11-1.65,8.11-8.56,9.74-20.01Z"/>
      <path d="M244.49,271.89c-2.08,1.49,5.57,9.12,13.29,10.99s11.94,.98,11.89-.47c-.05-1.94-5.86,0-13.34-2.67-8.24-2.94-9.98-9.19-11.84-7.85Z"/>
      <path d="M283.6,269.76c-3.06,.15,.41,16.9,3.58,25.16,3.19,8.26,10.91,22.38,13.63,21.14,2.06-.95-6.64-10.3-10.71-21.41-7.03-19.3-3.97-25.03-6.5-24.89Z"/>
      <path d="M268.7,278.68c-1.67,1.08,1.47,9.44,9.3,22.22,6.79,11.04,15.13,16.01,15.92,14.86,1.32-1.91-3.82-1.18-13.39-15.79-10.61-16.19-9.57-22.75-11.84-21.29Z"/>
      <path d="M274.56,292.37c-1.4-.98-6.38,5.99-8.92,11.7-2.53,5.72-4.93,12.75-2.67,12.92,1.72,.12,.41-2.3,5.15-12.41,3.48-7.45,8.12-10.99,6.43-12.21Z"/>
      <path d="M264.58,288.71c-2.13-.98-4.96,6.48-6.64,13.1-1.4,5.61-2.13,12.41-.03,12.28,1.5-.1,1.05-7.04,2.99-13.68,1.96-6.69,4.91-11.15,3.68-11.7Z"/>
      <path d="M306.87,267.5c-.14,1.05-1.72,2.55-6.5,3.31-3.06,.49-5.67,.25-7.18,.03,.98,1.3,3.5,5.56,4.22,10.42,.27,1.77,.32,3.19-.24,3.51-.44,.27-4.22-.47-8.53-5.49-3.97-4.66-3.46-9.37-3.5-10-.14-2.26,.3-3.28-1.15-3.73-20.37-6.35-32.81-24.45-31.49-28.02,.86-2.3,8.46,.61,15,1.23,11.18,1.06,12.14-.14,13.71,6.92,1.33,5.99,3.16,12.72,5.45,17.29,.47,.93,1.52,.22,5.62,.14,0,0,4.66,3.58,5.72,3.16,.81-.32,1.37-1.65,1.74-2.7,4.31,.86,7.24,2.79,7.11,3.92Z"/>
      <path d="M141.41,88.73c-3.24,2.97-4.48,3.95-9.63,3.78s-10.47,9.76-14.46,9.68c-3.04-.07-2.13-4.15-4.88-3.95-6.57,.49-9.85,11.21-12.02,10.5-2.08-.68,6.69-13.9,13.19-12.65,2.48,.83,2.13,3.78,3.99,3.7,2.82-.15,7.48-9.03,13.68-9.1,5.76-.05,4.93-.25,8.61-2.82,.79-.71,1.42-.76,1.74-.44,.32,.27,.32,.79-.22,1.3Z"/>
      <path d="M200.97,67.74c-3.87,25.94-10.77,47.67-22.61,48.48-9.57,.64-17.28-14.1-15.43-15.57,1.99-1.6,6.72,13.95,15.57,12.65,10.77-1.6,17.02-24.44,20.62-47.23,.54-3.38,1.23-2.47,5.05-7.19,5.67-7.01,3.55-16.28,5.86-16.06,1.94,.17,.71,12.68-4.53,18-4.09,4.17-4.07,3.95-4.53,6.92Z"/>
      <path d="M191.01,63.13c-2.09-.91-8.48,11.94-11.4,17.33-4.8,8.83-6.92,11.58-5.1,12.34,1.49,.61,5.59-7.65,8.39-12.92,6.1-11.48,9.71-16.04,8.11-16.75Z"/>
      <path d="M167.18,76.69c-1.94-.15-.54,5.54-2.36,11.26-1.47,4.59-5.27,8.41-3.97,9.41,1.64,1.27,5.08-5.56,6.15-8.87,1.08-3.31,2.08-11.65,.19-11.8Z"/>
      <path d="M164.88,64.11c-4.86,2.04-13.66,8.21-19.77,11.67-5.96,3.36-13.91,6.03-20.67,8.29-16.94,5.67-21.89,5.78-21.48,7.99,.27,1.42,3.28,.54,14.62-2.92,8.09-2.47,18.59-6.64,25.63-9.63,9.54-4.04,17.49-12.28,25.28-14.49,1.87-.54-3.06,4.44-5.59,6.3-2.5,1.84-1.87,2.31-1.77,7.26,.1,4.96-3.11,8.02-7.26,9.69-.71,.3-.95,.86-.79,1.3,.15,.42,1.01,.73,1.81,.54,1.86-.47,5.12-1.99,7.14-5.61,2.04-3.65,1.6-5.83,1.42-9.46-.03-1.23-.3-1.25,2.13-3.19,3.28-2.62,6.59-6.28,5.49-8.07-.95-1.64-3.44-.83-6.18,.32Z"/>
      <path d="M136.17,48.24c-.2-1.05-1.49-.86-3.97-.86-4.88,0-5.61-3.48-5.39-7.33,.24-4.14-1.71-3.16-2.21-4.39-.49-1.17,1.27-2.23,2.7-4.24,1.11-1.6,.47-3.55,.95-6.21s1.72-3.77,.9-4.26c-1.94-1.18-3.43,4.04-3.55,8.27-.08,3.07-4.32,4.09-3.51,6.92,.47,1.65,2.57,1.55,2.41,3.58-.24,3.28,.54,11.7,10.42,9.85,1.06-.22,1.37-.74,1.25-1.33Z"/>
      <path d="M130.47,38.69c-1.82,1.49-2.25,3.07-.41,3.43,1.82,.35,4.44-.41,4.2-2.89-.25-2.48-2.57-1.54-3.8-.54Z"/>
      <path d="M177.5,69.94c-.74-2.18-6.94-14.98-22.76-17.49-3.33-.54-4.1,4.81-10.05,6.43-2.18,.59-9,1.72-14.46-2.53-3.29-2.58-3.26-3.28-8.31-2.62-9.44,1.23-19.2,7.72-24.96,17.12-5.3,8.63-5.07,9.05,.79,11.7,6.82,3.11,14.76,5.18,14.76,5.18l.02,1.27c2.82-.93,7.3-2.36,11.82-3.66,7.43-2.14,25.13-10.52,26.73-11.58,1.6-1.05,17.43-11.57,18.9-9.17,1.45,2.38-7.85,9.57-7.85,9.57,.27,7.72-1.32,10.91-4.53,13.17-5.4,3.8-10.79,.64-13.85,3.58-1.76,1.69-4.93,4.09-7.33,5.84l24.35-.29,4.53-6.74,1.6-9.03s7.95-3.53,9.71-4.53c2.45-1.38,2.16-2.45,.88-6.23Zm-61.67,15.13c-1.1,.02-1.98-2.7-2.33-5.51-.44-3.6-.02-7.36,1.4-7.65,1.45-.3,1.06,1.94,1.2,5.93,.14,3.99,1.54,7.21-.27,7.23Z"/>
      <path d="M97.33,84.15c-3.24,.98-14.76,25.03-1.74,30.35,13.04,5.32,43.91-14.89,41.78-17.7s-22.26,18.63-40.09,15.42c-7.45-1.47-6.08-15.82,.84-25.4,1.05-1.45,.84-3.16-.79-2.67Z"/>
      <path d="M144.83,43.42c-1.81-.24-2.25,3.78,.71,7.36,2.7,3.28,6.81,3.58,6.96,2.26,.17-1.42-2.7-1.23-5.15-3.68-2.25-2.26-.91-5.74-2.52-5.94Z"/>
      <path d="M146.17,41.76c-1.67,2.03-5.39,.34-2.19-3.87s3.65-8.7-.57-9.09c-3.13-.12-2.6,2.26-5.1,1.74-3.43-.71-.14-6.08-3.68-7.58-1.23-.52-1.72-.46-3.55-1.13-1.81-.73-2.48-2.41-.79-3.65,1.08-.79,5.94-4.17,15.52-1.06,7.65,2.45,9.93,13,.37,24.65Z"/>
      <path d="M210.76,247.4c-6.15-.03-9.52-1.37-12.41-3.5-2.06-1.52-3.72-4.41-5-6.38-.93-1.44-1.69-2.38-2.26-2.01-.35,.22-.71,.9,.15,2.75,1.94,4.2,6.94,12.14,18.66,11.67,2.2-.1-3.31,7.19,.51,18.27,3.82,11.08,4.53,14.62,3.38,23.07h2.4s1.69-7.63-.62-15.25c-2.31-7.63-4.96-13.22-3.46-20.21,1.47-7.03,2.6-8.39-1.33-8.41Z"/>
      <path d="M273.94,262.09c.61,.79-.1,1.64-2.72,3.14-4.44,2.57-14.25,7.13-28.47,7.33-38.05,.52-62.8-23.15-80.64-66.52-17.83-43.37-20.38-88.61-20.48-94.74-.17-10.32-.29-11.87,1.33-11.97,1.87-.12,.96,4.32,1.33,11.89,.54,11.01,4.04,48.35,14.32,77.61,10.28,29.27,25.9,63.87,57.65,76.99,14.69,6.06,36.68,3.51,43.43,1.37,3.8-1.2,7.63-2.84,10.64-4.17,1.96-.88,3.02-1.71,3.6-.93Z"/>
      <path d="M203.96,25.24c-5.74,0-8.92-.54-10.57,5.44-1.32,4.8-5.86,20.62-6.52,23.69-.66,3.06-1.2,6.38,6.25,6.38s8.78,.79,10.91-5.99,6.13-21.16,7.06-23.95c.93-2.8,.47-5.57-7.13-5.57Zm4.09,7.43c-.73,2.55-3.75,12.36-5.34,17.95-1.99,7.01-1.55,7.72-8.02,7.72-7.9,0-5.56-2.89-4.88-6.21,.66-3.33,4.54-15.38,5.86-20.26,1.23-4.58,2.79-4.22,6.92-4.22,5.98,.02,6.72,.54,5.45,5.03Z"/>
      <path d="M198.06,264.04c-1.33-3.85-11.04-33.66-13.31-41.12-2.26-7.45-15.96-52.16-17.7-58.55-1.47-4.26,0-5.72,.54-10.77,.54-5.05,3.21-26.58-1.99-44.97-2.13-7.53-4.8-12.14-4.8-12.14l-23.42,.3s-14.95,10.28-25.94,14.37c-.02,0-2.28-.14-3.07,3.07,0,0-5.05,22.88,4.53,50.56,.79,2.4,2.13,4.26,.79,12.24-1.33,7.99-13.04,83.29-14.37,92.59-1.33,9.3,.14,7.99,19.44,11.45,17.48,3.14,16.77,3.72,18.63-4.26,1.87-7.99,5.05-30.48,6.38-30.62,1.33-.14,5.54,11.01,9.3,19.3,6.79,14.89,7.19,18.63,11.58,17.56,4.41-1.06,23.42-4.91,33.4-13.71,1.47-1.06,1.33-1.47,0-5.32Zm-42.25-136.57c1.52-.39,2.26,4.05,4.12,12.78,2.57,11.96,4.85,17.51,3.07,18.02-1.94,.57-2.53-3.01-5.3-16.58-2.36-11.5-3.83-13.73-1.89-14.22Zm-29.47,111.42c-.27,1.99-1.08,6.79-1.74,9.98-.66,3.21-2.26,10.79-2.92,12.65s-.79,4.26-1.99,4.12c-1.2-.14-1.47-.66-.93-3.19,.54-2.53,1.47-5.45,2.8-12.11,1.32-6.65,1.79-14.61,3.99-14.37,1.18,.14,1.05,.93,.79,2.92Zm17.07,4.64c-1.06,.71-1.96-.19-3.19-3.19-1.25-3.02-3.73-8.16-8.34-19.69-4.61-11.53-14.19-37.44-14.73-39.38s-2.25-5.13-.54-5.49c1.33-.25,1.6,1.15,2.67,4.59,1,3.21,13.48,35.13,15.08,39.03,1.6,3.9,6.92,16.68,7.99,19.34,1.06,2.67,1.86,4.26,1.06,4.8Zm25.72,15.69c-1.32,.54-1.84-.84-3.07-4.02-1.44-3.66-7.46-18.54-10.54-28.52-3.07-9.96-11.64-33.62-14.05-42.44-2.41-8.82-7.63-29.91-8.71-35.24-1.08-5.34-2.69-10.1-.73-10.44,1.38-.24,1.54,3.48,2.74,9.09,1.17,5.66,8.92,34.33,10.01,38.2,1.1,3.87,11.13,34.31,12.95,39.58,1.82,5.27,9.27,25.28,10.3,28.3,1.03,3.02,2.41,4.95,1.1,5.49Z"/>
      <path d="M197.93,213.34c-2.62-1.2-5.67,11.31-2.62,10.82,1.45-.22,.39-3.39,1.69-6.87,.83-2.26,1.79-3.55,.93-3.95Z"/>
      <path d="M251.8,238.59c.47,2.4-13.75-1.6-21.82,.54-8.07,2.13-10.74,5.59-16.58,3.9-10.18-2.94-8.66-19.17-5.3-25.6,2.63-5.02,4.85-7.18,4.63-7.89-.44-1.4-5.34-.2-9.05,4.27-4.14,4.96-3.44,8.19-4.73,8.19s-1.69-3.99,2.67-9.57c4.34-5.59,12.33-6.82,13.39-4.26,1.06,2.57-5.88,8.36-6.89,16.72-.54,4.37,.24,15.13,6.1,16.46,4.26,.98,8.36-2.08,14.56-3.99,4.61-1.42,12.31-.78,15.7-.44,3.61,.32,7.16,.76,7.33,1.65Z"/>
      <path d="M193.3,224.55c-2.06-.35-1.76,4.73-1.17,7.33s2.89,6.92,4.61,6.15c1.72-.78-1.55-2.65-2.6-7.33-.9-3.87,.17-5.94-.84-6.15Z"/>
      <path d="M284,238.79c-2.3,.3,.1,14.61,3.99,21.35,3.9,6.74,11.26,7.51,11.04,5.59-.12-1.01-5.66-.64-9.27-7.14-3.19-5.74-4.17-12.67-4.39-16.28-.2-3.46-.93-3.58-1.37-3.51Z"/>
      <path d="M308.57,241.69c-.79-.66-1.94,1.55-3.58,3.28-1.96,2.06-3.12,2.84-2.26,3.38,.57,.35,2.04,.22,3.99-2.04,1.87-2.2,2.25-4.29,1.86-4.61Z"/>
      <path d="M195.41,39.71c-1.59,1.35-2.38,1.94-2.5,2.89-.12,.95,1.35,2.43,2.31,3.53,.89,1.01,1.81,1.94,2.5,2.01,1.13,.1,1.94-.78,3.44-2.13,1.55-1.42,2.5-2.09,2.62-2.97,.1-.66-.49-1.13-2.04-2.9-1.96-2.25-2.35-2.5-3.17-2.5-.84,.02-2.41,1.47-3.16,2.08Z"/>
      <path d="M10.58,184.84c-7.21-1.3-8.6-6.5-7.6-14.19,1.77-13.85,2.4-20.84,4.26-20.75,1.87,.1-.35,8.43-1.87,21.02-.49,4.07-.93,9.29,4.61,11.35,2.4,.9,4.76,.81,4.96,1.77,.15,.56-.1,1.55-4.36,.79Z"/>
      <path d="M57.28,69.7c-4.91,1.67-6.38-4.8-7.45-4.34-1.01,.42-2.84,1.64-4.61,.98-2.25-.84-3.55-3.11-2.57-7.8s4.91-8.66,5.88-7.41c.73,.95-2.63,4.36-3.39,7.95-.52,2.48-.35,4.22,.71,4.61,1.64,.62,3.65-1.5,5.15-1.01,1.49,.47,2.13,5.89,5.32,4.83,2.13-.71,.68-4.68,1.55-5.18,2.03-1.23,3.23,6.1-.59,7.38Z"/>
      <path d="M68.59,50.55c-3.04,4.1-5.99,3.38-7.5,2.48-1.71-1.01-5.22-.29-5.45,3.19-.24,3.5,1.99,5,4.22,5.2,1.33,.12,1.18,2.06-.29,1.94-5.61-.35-6.94-5.83-5.91-9.1,1.18-3.8,5.76-5.05,8.7-3.19s5.88-4.36,6.21-7.45c.24-2.25,1.72-1,5.27-4.2,1.81-1.62,3.5-4.96,.12-6.92-3.38-1.94-6.79,3.51-8.34,3.39-2.45-.17,1.76-7.41-1.33-8.39-5.05-1.59-10.69,8.16-11.53,10.61-.86,2.45-1.15,2.84-2.18,3.01-6.27,1.1-10.3,3.29-10.25,6.18s2.31,3.58,3.56,4.07c1.23,.49,1.01,1.81-.3,1.91-2.26,.15-5.59-1.6-5.76-5.35,.03-7.85,11.26-8.65,12.24-9s5.88-16.72,15.23-13.51c3.44,1.18,1.76,7.48,1.76,7.48,0,0,6.21-6.74,10.33-.3,.79,1.23,2.53,7.19-6.48,11.35-.76,.41,.08,3.38-2.31,6.62Z"/>
      <path d="M69.98,62.34c-1.94,1.5,1.23,4.26,2.4,3.55,1.44-.9,.19-5.56-2.4-3.55Z"/>
      <path d="M8.19,165.72c-.86,1.47,6.15,6.3,13.71,7.19,8.87,1.05,16.85,.93,25.96-1.67,7.57-2.16,10.88-4.66,9.76-5.81-.98-.98-8.16,2.89-12.9,3.97-3.28,.73-8.19,2.67-22.32,1.06-8.24-.93-12.99-6.81-14.2-4.75Z"/>
      <path d="M93.21,126.36c-.54-9.1-6.01-29.35-11.89-39.33-.93-1.59-3.99-.52-6.96,.95-4.07,1.99-6.13,3.19-6.13,3.19-.81,.57-1.28-1.06-2.01-2.69-2.8-6.27-9.29-16.31-12.6-16.67-9.63-1.03-24.66,11.45-33,23.07-8.16,11.36-25.92,45.83-8.51,53.58,9.74,4.34,36.1-.17,45.41-4.69,4.8-2.13,5.62-2.8,6.13-10.25,.15-2.21-.27-3.17,1.38-3.21,2.48-.07,3.43-.19,3.43,1.11,0,14.64-2.96,33.35-4.54,42.4-1.59,9.05-5.57,9.57-11.7,9.85s-22.09,.47-29.28,.27c-6.38-.19-7.31,.08-7.58,1.99-.2,1.35-2.26,13.71-2.67,17.7-.41,4-.79,4.66,1.99,4.66s29.27,.54,40.44,.54,15.98-.27,19.17-.27,4.66-.54,4.66-4.39-1.72-39.77-2.13-47.76c-.41-7.97-.84-14-1.13-15.98-.22-1.67,.3-1.37,.9-.78s4.56,4.07,10.59,2.96c6.03-1.13,6.32-11.35,6.03-16.26Zm-24.28-33.64c.93-.62,3.39,3.51,4.75,7.53,1.65,4.88,2.53,8.75,1.69,9.1-1.27,.52-1.98-3.68-3.55-8.38-1.55-4.71-3.72-7.72-2.89-8.26Zm-25.04,15.3c1.6-4.26,2.74-11.62,4.61-11.48,1.69,.12-.08,6.96-1.15,9.88-1.06,2.94-2.84,11.18-4.96,11.01-1.81-.15-.1-5.15,1.5-9.41Zm11.97,12.87c-3.19,.35-12.95,1.33-18.54,1.69-5.59,.35-12.94,1.59-13.12-.54-.17-1.96,9.85-2.31,13.04-2.48,3.19-.17,16.31-1.33,18.63-1.5s5.32-.34,5.23,.9c-.08,1.23-2.04,1.59-5.23,1.94Zm5.08-23.88c-3.6-11.7-10.66-18.76-9.61-20.06,2.08-2.58,9.52,11.79,11.04,16.46,1.79,5.64,5.4,18.02,3.83,18.56-1.69,.57-1.69-3.26-5.27-14.96Zm18.76,28.13c-.44,2.13-2.48,3.14-5.67,3.04-3.17-.1-7.67-.29-9.3-.83-1.6-.52-1.32-3.33-1.15-6.57,.14-2.57,.62-3.38,1.59-4.17,.98-.79,6.47-4.26,9.57-5.49,3.11-1.23,5.05-.35,5.59,2.75,.52,3.11-.19,9.14-.62,11.26Z"/>
      <path d="M72.96,72.87c3.9-1.27,4.93-2.69,5.54-4.94,.73-2.7-.25-5.55,.15-7.86,.34-1.95,2.32-2.64,1.14-5.33s-3.03-3.65-3.76-2.58c-.71,1.4,2.09,2.49,1.79,4.34-.22,1.32-2.08,1.28-1.74,5.15,.66,4.33,.63,6.85-2.45,8.36-4.49,1.6-7.1,3.07-8.75,7.44-1.05,2.77-.86,3.44-.22,3.67,.94,.34,1.6-1.22,2.47-3.14,1.27-2.81,2.48-3.89,5.84-5.09Z"/>
      <path d="M282.91,236.27c1.82,.1,3.6-7.8,9.09-7.19,4.8,.54,6.57,2.04,9.14,0s9.68-6.84,10.64-7.65c1.18-1,1.33,2.25,3.19,1.54,1.87-.71,3.21-2.7,2.21-5.76-.86-2.7-3.53-1.33-5.76,.79-2.31,2.2-10.86,8.07-12.36,9.03-1.5,.98-3.04-.56-7.04-.47-4,.08-7.13,2.96-8.73,5.54-1.59,2.58-1.44,4.12-.37,4.17Z"/>
      <path d="M295.57,234.45c-1.3,.95-2.72,1.89-1.65,2.72,1.18,.91,4.85-2.45,3.8-3.51-.68-.66-1.25,.14-2.14,.79Z"/>
      <path d="M313.27,236.63c-1.74-.2-1.6,3.43-3.34,5.86-1.82,2.55,.41,3.97,2.43,.95,.89-1.33,3.01-6.57,.91-6.81Z"/>
      <path d="M318.22,221.33c-1.6,.96,1.65,6.03,1.3,10.59-.35,4.54-4.73,7.58-3.6,9.03,1.13,1.47,5.61-2.25,5.98-8.87,.34-6.64-1.62-12.02-3.68-10.76Z"/>
      <path d="M22.59,204.88c-1.4-1.62-7.99,10.12-7.63,25.03,.32,13.32-9.71,18.05-14.02,32.12-1.6,5.49-.78,6.69,.27,6.38,1.37-.39,.54-2.77,3.55-9.49,4.8-10.74,11.13-15.82,12.33-23.93,1.11-7.58-.44-12.28,2.4-21.14,2.7-8.39,4.17-7.73,3.11-8.97Z"/>
      <path d="M39.28,214.46c-1.93-.47-6.03,17.56-7.8,23.42-1.77,5.86-5.86,20.04-7.09,23.95s-1.94,6.21-.54,6.57c1.42,.35,2.67-4.44,4.44-10.64,1.77-6.21,6.21-21.11,7.26-25.03,1.05-3.9,3.01-10.28,3.72-12.95,.73-2.65,1.44-4.96,.02-5.32Z"/>
      <path d="M1.08,270.05c-.98,1.54,2.72,3.72,6.05,5.05s19.5,7.09,30.03,7.77c1.87,.27,2.18-.98,2.97-4.17,.79-3.19,12.92-40.58,13.98-42.98s10.37-25.41,11.7-28.47c.66-1.99-2.79-1.99-3.72,0s-7.85,19.83-9.85,25.8c-1.99,5.99-10.12,30.35-11.7,35.13-1.59,4.78-2.8,8.92-3.33,10.37-.52,1.47-.15,1.79-3.58,1.06-11.45-2.4-21.28-5.45-25.16-6.92s-6.54-3.99-7.4-2.63Z"/>
      <path d="M67.66,279.74c5.34-.41,24.2-3.56,25.48-3.9,1.6-.41,.78-1.65,.19-7.53-.47-4.91-5.72-41.39-7.06-50.97-1.33-9.57-5.59-39.25-6.25-44.84s-2.13-12.51-.79-12.78c1.33-.27,1.33,1.74,2.53,7.85s5.72,39.38,6.65,45.51,7.06,51.24,7.72,58.41c.66,7.19,.44,6.18-3.19,6.92-3.83,.78-19.44,3.46-24.38,3.93-4.44,.42-7.14,.73-8.48-1.13-4.75-6.64-4.26-20.89-3.06-28.61,1.2-7.72-3.46-14.64-1.47-15.7,2.26-1.2,4.39,8.65,3.85,15.57-.54,6.92-1.98,17.68,2.26,26.48,.79,1.6,2.97,1.01,5.99,.78Z"/>
      <path d="M68.07,216.94c-1.76,.35,.19,8.58,.79,13.85,.79,6.91,2.8,20.08,3.58,25.16,.79,5.07,1.47,12.51,3.85,11.97,1.74-.41-.66-8.12-1.74-16.36-1.06-8.26-3.33-22.75-4.12-27.81-.78-5.07-.78-7.13-2.36-6.81Z"/>
      <path d="M82.12,62.59c-1.05,.68,.98,4.53,.17,7.72-.79,3.21-5.12,8.27-3.34,14.22,.35,1.3,2.2,1.49,2.01-1s.27-5.49,2.04-8.87c1.77-3.38,2.13-5.15,1.6-8.43-.54-3.28-1.55-4.22-2.48-3.65Z"/>
      <path d="M73.15,75.19c-1.59-.79-4.04,6.06-1.49,11.35,.78,1.6,2.55,.95,2.01-.54-.54-1.49-1.37-4.04-.83-6.38,.56-2.35,1.5-3.82,.3-4.42Z"/>
      <path d="M75.41,52.61c-.03-3.46,.17-4.66-1.37-4.66-1.23,0-1.11,1.65-1.06,4.8v.03c-1.37,.19-3.78,.52-5.74,.73-2.7,.3-3.65,.35-3.66,1.3-.03,.9,1.93,.78,3.93,.59,1.59-.15,4.02-.37,5.49-.54,0,2.82,.02,3.87,1.47,3.78,1.11-.05,1-1.6,.95-6.03Z"/>
      <path d="M37.45,37.72c.27,1.55,4.04-.35,7.5,.17,3.46,.54,4.81,3.11,5.76,2.48,1.15-.76-.76-3.68-5.32-4.48s-8.16,.57-7.94,1.82Z"/>
      <path d="M296.11,242.76c-1.55,.76,1.57,4.29,2.3,11.26,.78,7.51-.69,10.42,1.05,10.42s1.5-7.58,.91-11.55c-.54-3.48-2.38-11.06-4.26-10.13Z"/>
      <path d="M178,281.16c-1.6,.35,.71,4.34,1.23,7.9,.54,3.55,.73,5.23,1.69,5.42,1.2,.22,1.2-3.11-.17-8.07-.95-3.41-1.76-5.47-2.75-5.25Z"/>
      <path d="M188.24,274.12s1.23,5.2,3.97,9.69,4.04,5.32,4.91,4.49c.89-.83-1.65-3.55-2.96-5.67s-3.38-6.5-3.97-9.24l-1.96,.73Z"/>
      <path d="M15.67,316.12H296.67c13.56,0,21.36-.9,21.19,1.06s-6.57,1.42-21.36,1.42H15.31c-3.9,0-7.26,.17-7.26-1.37,0-1.42,3.66-1.11,7.62-1.11Z"/>
      <path d="M220.52,316.35c-3.53-3.33-5.07-8.39-5.74-12.26-.17-1.01-.29-1.96-.35-2.75,.76-.41,1.45-.81,2.11-1.17,.08,.84,.19,1.82,.34,2.84,.2,1.28,.47,2.6,.86,3.78,1.89,5.49,3.19,6.11,4.26,8.09,1.06,1.99-.59,2.35-1.47,1.47Z"/>
      <path d="M199.11,290.11c1.5,1.01-2.01,5.59-6.92,7.06-3.43,1.01-10.98,.1-9.71-1.87,.96-1.49,4.78,1.1,9.24-.37,3.8-1.22,5.86-5.84,7.4-4.81Z"/>
      <path d="M179.59,294.65c-1.69,.34-1.15,8.97-.35,13.58,.79,4.61,1.42,8.97,3.01,8.43,1.6-.54-.27-6.48-.89-10.91-.93-6.79,.39-11.52-1.76-11.09Z"/>
      <path d="M216.88,302.99c-.66,.35-1.35,.73-2.08,1.1-2.75,1.44-5.99,3.07-9.71,4.91-11.8,5.94-20.89,7.72-21.35,6.1-.12-.41-.35-1,3.01-1.65,3.38-.66,11.26-3.95,18.32-7.33,3.8-1.82,6.86-3.43,9.34-4.8,.76-.41,1.45-.81,2.11-1.17,6.21-3.53,7.89-4.98,8.78-3.97,1.11,1.27-1.94,3.36-8.43,6.81Z"/>
      <path d="M185.4,308.11c.29,1.81,4.49,.41,12.53-2.43,3.6-1.27,10.69-5.18,9.93-6.57-.95-1.72-2.84,.9-11.01,4.44-6.62,2.9-11.74,2.62-11.45,4.56Z"/>
      <path d="M223.72,291.51c-3.36-2.06-9.57-.49-12.65-.71-7.8-.54-10.94-4.54-12.07-2.72-.98,1.59,5.61,4.85,12.53,4.96,6.92,.1,7.35-1.11,10.23,.05,1.3,.54,2.2,.61,2.55,.05,.32-.46,.19-1.17-.59-1.64Z"/>
      <path d="M224.49,300.31c-1.62,.42-.17,6.21,.62,9.41s2.48,6.96,3.72,6.74c1.74-.3-.35-2.08-1.99-9.03-.84-3.56-.68-7.55-2.35-7.11Z"/>
      <path d="M80.62,282.04c-2.31,.35,.54,6.23,1.6,14.73,.71,5.67,.35,6.65,1.87,6.57s.79-7.63-.35-12.6c-1.18-4.95-1.65-8.9-3.12-8.7Z"/>
      <path d="M93.77,276.82c-1.74,.32,.46,11.18,1.94,15.16,1.94,5.29,9.74,9.64,16.94,8.87,1.5-.17,2.82-1.37,.41-1.42-3.39-.08-12.19-1.94-15.2-8.26-3.06-6.28-2.18-14.71-4.09-14.35Z"/>
      <path d="M24.99,279.74c-1.27-.27-2.87,5.76-5.45,10.37-1.76,3.14-4.69,7.67-3.85,8.46,.95,.9,1.86-.22,5.49-6.82,3.02-5.45,5.2-11.72,3.82-12.01Z"/>
      <path d="M36.98,281.87c-1.49-.1-3.9,7.19-2.21,14.02,1.69,6.82,7.3,12.02,8.87,10.12,1.27-1.54-4.93-3.6-6.37-11.3-1.67-9.02,2.45-12.67-.29-12.83Z"/>
      <path d="M125.28,301.15c-.93-1.99-8.82-2.04-10.42-1.99-3.28,.1-3.99,2.48-13.31,3.65-4.42,.54-11.53,1.42-15.43,1.42s-4.12,.57-4.09,5.15c.03,4.09-.71,9.03,3.9,8.34,4.61-.71,23.61-4.2,34.06-9.93,5.02-2.77,6.2-4.63,5.29-6.64Zm-5.72,4.49c-3.11,1.6-15.08,5.94-20.48,7.01-5.42,1.06-14.19,3.99-14.37,.41-.12-2.4-.1-5.45-.1-5.45,.1-1.77,1.67-.41,14.02-1.94,11.45-1.42,12.85-3.99,15.87-4.26,3.01-.27,8.43-.27,8.6,.9,.19,1.11-.44,1.76-3.53,3.34Z"/>
      <path d="M209.11,277.85s-2.67,3.14-4.2,6.03c-1.54,2.89-.96,3.5-.54,3.66,1,.41,1.94-1.77,4.54-5.27,2.6-3.5,4.14-4.85,5.2-5.61l-.78-2.67s-2.14,1.54-4.22,3.85Z"/>
      <path d="M113.97,281.7c-1.87-1.13-3.38,6.03-5.15,9.93s-1.6,5.32-.71,5.49,3.55-5.67,4.8-9.57,1.94-5.32,1.06-5.84Z"/>
      <path d="M127.93,284c-1.57-.25-4.39,8.26-2.67,13.85,1.64,5.3,12.56,10.39,19.83,12.82,1.6,.54,3.46,2.08,4.12,3.55s2.9,.66,1.91-1.81c-.98-2.45-3.33-3.19-7.63-4.83-6.35-2.43-14.66-6.74-15.96-10.25-1.94-5.25,2.67-12.97,.41-13.32Z"/>
      <path d="M129.57,310.42c-6.38,0-10.28-1.23-10.64,.54s4.09,1.77,7.8,1.77,7.99,.35,7.99-1.06-2.48-1.25-5.15-1.25Z"/>
      <path d="M54.51,313.77c.05-2.2-7.01-5.74-8.46-6.42-2.99-1.37-4.68,.46-13.54-2.63-4.22-1.49-10.96-3.83-14.46-5.57-3.5-1.74-3.95-1.32-5.93,2.8-1.77,3.66-4.66,7.78-.2,9.2,4.46,1.42,23.02,6.7,34.92,6.21,5.72-.27,7.62-1.4,7.67-3.6Zm-7.11,1.47c-3.5,.05-16.14-1.37-21.48-2.82-5.32-1.44-14.49-2.72-13.05-6.01,.96-2.2,2.35-4.93,2.35-4.93,.86-1.55,1.69,.35,13.43,4.48,10.88,3.8,13.29,2.13,16.13,3.23,2.82,1.1,7.67,3.5,7.33,4.61-.34,1.11-1.2,1.4-4.69,1.45Z"/>
    </g>
    <circle cx="63.37" cy="62.51" r="1.74"/>
  </g>
  <rect class="cls-1" x=".04" width="321.89" height="334.49"/>
</svg>